<?xml version="1.0" encoding="utf-8"?>
<!-- Generator: Adobe Illustrator 15.0.0, SVG Export Plug-In . SVG Version: 6.00 Build 0)  -->
<!DOCTYPE svg PUBLIC "-//W3C//DTD SVG 1.1//EN" "http://www.w3.org/Graphics/SVG/1.1/DTD/svg11.dtd">
<svg version="1.1" id="Calque_1" xmlns="http://www.w3.org/2000/svg" xmlns:xlink="http://www.w3.org/1999/xlink" x="0px" y="0px"
	 width="1200px" height="1200px" viewBox="0 0 1200 1200" enable-background="new 0 0 1200 1200" xml:space="preserve">
<path fill="none" stroke="#135A76" stroke-width="7" stroke-miterlimit="10" d="M969.836,596.394
	c0,201.57-163.403,364.974-364.973,364.974c-201.565,0-364.973-163.403-364.973-364.974c0-201.571,163.408-364.972,364.973-364.972
	C806.433,231.421,969.836,394.823,969.836,596.394z"/>
<path fill="none" stroke="#135A76" stroke-width="7" stroke-miterlimit="10" d="M1005.562,596.325
	c0,221.133-179.257,400.394-400.394,400.394c-221.13,0-400.395-179.261-400.395-400.394c0-221.136,179.265-400.394,400.395-400.394
	C826.306,195.931,1005.562,375.189,1005.562,596.325z"/>
<path fill="none" stroke="#135A76" stroke-width="7" stroke-miterlimit="10" d="M1032.933,597.529
	c0,236.542-191.752,428.291-428.297,428.291c-236.533,0-428.29-191.749-428.29-428.291c0-236.544,191.757-428.293,428.29-428.293
	C841.181,169.236,1032.933,360.985,1032.933,597.529z"/>
<path fill="none" stroke="#135A76" stroke-width="7" stroke-miterlimit="10" d="M1066.705,596.468
	c0,254.678-206.451,461.126-461.131,461.126c-254.666,0-461.124-206.448-461.124-461.126c0-254.674,206.458-461.125,461.124-461.125
	C860.254,135.343,1066.705,341.794,1066.705,596.468z"/>
<path fill="none" stroke="#135A76" stroke-width="7" stroke-miterlimit="10" d="M1096.823,596.635
	c0,273.564-220.268,495.325-491.99,495.325c-271.709,0-491.982-221.761-491.982-495.325c0-273.56,220.273-495.322,491.982-495.322
	C876.556,101.312,1096.823,323.075,1096.823,596.635z"/>
<path fill="none" stroke="#135A76" stroke-width="7" stroke-miterlimit="10" d="M1446.172,597.134
	c0,464.41-376.463,840.866-840.876,840.866c-464.382,0-840.865-376.456-840.865-840.866c0-464.397,376.483-840.867,840.865-840.867
	C1069.709-243.733,1446.172,132.737,1446.172,597.134z"/>
<path fill="none" stroke="#135A76" stroke-width="7" stroke-miterlimit="10" d="M1382.675,597.082
	c0,429.354-348.05,777.396-777.407,777.396c-429.334,0-777.399-348.042-777.399-777.396c0-429.346,348.065-777.4,777.399-777.4
	C1034.625-180.318,1382.675,167.736,1382.675,597.082z"/>
<path fill="none" stroke="#135A76" stroke-width="7" stroke-miterlimit="10" d="M1414.421,596.077
	c0,446.583-362.012,808.589-808.597,808.589c-446.558,0-808.589-362.006-808.589-808.589c0-446.571,362.031-808.591,808.589-808.591
	C1052.409-212.514,1414.421,149.506,1414.421,596.077z"/>
<path fill="none" stroke="#135A76" stroke-width="7" stroke-miterlimit="10" d="M1350.928,597.137
	c0,412.097-334.062,746.152-746.163,746.152c-412.077,0-746.153-334.055-746.153-746.152c0-412.091,334.076-746.157,746.153-746.157
	C1016.866-149.02,1350.928,185.046,1350.928,597.137z"/>
<path fill="none" stroke="#135A76" stroke-width="7" stroke-miterlimit="10" d="M1319.181,596.977
	c0,394.578-319.86,714.433-714.443,714.433c-394.56,0-714.434-319.854-714.434-714.433c0-394.574,319.875-714.435,714.434-714.435
	C999.32-117.458,1319.181,202.402,1319.181,596.977z"/>
<path fill="none" stroke="#135A76" stroke-width="7" stroke-miterlimit="10" d="M1287.436,596.924
	c0,376.665-305.341,681.998-682.009,681.998c-376.647,0-681.999-305.333-681.999-681.998c0-376.661,305.351-682,681.999-682
	C982.095-85.076,1287.436,220.263,1287.436,596.924z"/>
<path fill="none" stroke="#135A76" stroke-width="7" stroke-miterlimit="10" d="M1255.161,596.871
	c0,359.277-291.247,650.514-650.527,650.514c-359.261,0-650.516-291.236-650.516-650.514c0-359.272,291.255-650.518,650.516-650.518
	C963.914-53.647,1255.161,237.599,1255.161,596.871z"/>
<path fill="none" stroke="#135A76" stroke-width="7" stroke-miterlimit="10" d="M1223.944,595.413
	c0,341.797-277.075,618.864-618.876,618.864c-341.782,0-618.864-277.067-618.864-618.864c0-341.791,277.082-618.865,618.864-618.865
	C946.869-23.452,1223.944,253.623,1223.944,595.413z"/>
<path fill="none" stroke="#135A76" stroke-width="7" stroke-miterlimit="10" d="M1192.197,596.766
	c0,324.647-263.176,587.818-587.828,587.818c-324.635,0-587.818-263.171-587.818-587.818c0-324.647,263.183-587.822,587.818-587.822
	C929.021,8.944,1192.197,272.119,1192.197,596.766z"/>
<path fill="none" stroke="#135A76" stroke-width="7" stroke-miterlimit="10" d="M1160.98,596.71
	c0,306.679-248.608,555.279-555.288,555.279c-306.666,0-555.279-248.601-555.279-555.279c0-306.674,248.613-555.28,555.279-555.28
	C912.372,41.43,1160.98,290.036,1160.98,596.71z"/>
<path fill="none" stroke="#135A76" stroke-width="7" stroke-miterlimit="10" d="M1128.704,596.66
	c0,289.29-234.515,523.795-523.804,523.795c-289.278,0-523.797-234.505-523.797-523.795c0-289.288,234.519-523.799,523.797-523.799
	C894.189,72.861,1128.704,307.372,1128.704,596.66z"/>
<linearGradient id="SVGID_1_" gradientUnits="userSpaceOnUse" x1="593.3081" y1="922.9658" x2="616.0856" y2="270.7013">
	<stop  offset="0" style="stop-color:#000000"/>
	<stop  offset="0.2234" style="stop-color:#020202"/>
	<stop  offset="0.3039" style="stop-color:#090909"/>
	<stop  offset="0.3612" style="stop-color:#141414"/>
	<stop  offset="0.4076" style="stop-color:#252525"/>
	<stop  offset="0.4473" style="stop-color:#3B3B3B"/>
	<stop  offset="0.4819" style="stop-color:#565656"/>
	<stop  offset="0.4987" style="stop-color:#666666"/>
	<stop  offset="0.5157" style="stop-color:#565656"/>
	<stop  offset="0.5504" style="stop-color:#3B3B3B"/>
	<stop  offset="0.5903" style="stop-color:#252525"/>
	<stop  offset="0.6369" style="stop-color:#141414"/>
	<stop  offset="0.6946" style="stop-color:#090909"/>
	<stop  offset="0.7754" style="stop-color:#020202"/>
	<stop  offset="1" style="stop-color:#000000"/>
</linearGradient>
<path fill="url(#SVGID_1_)" d="M943.582,597.832c0,184.357-151.742,333.806-338.923,333.806
	c-187.174,0-338.918-149.448-338.918-333.806c0-184.359,151.745-333.807,338.918-333.807
	C791.84,264.025,943.582,413.473,943.582,597.832z"/>
<ellipse fill="none" stroke="#1A1A1A" stroke-width="0.5" stroke-miterlimit="10" cx="604.492" cy="596.183" rx="172.866" ry="172.108"/>
<linearGradient id="SVGID_2_" gradientUnits="userSpaceOnUse" x1="474.814" y1="904.6475" x2="736.641" y2="287.8216">
	<stop  offset="0" style="stop-color:#000000;stop-opacity:0.29"/>
	<stop  offset="0.5" style="stop-color:#999999;stop-opacity:0.67"/>
	<stop  offset="0.5783" style="stop-color:#707070;stop-opacity:0.659"/>
	<stop  offset="0.6692" style="stop-color:#484848;stop-opacity:0.6463"/>
	<stop  offset="0.7587" style="stop-color:#292929;stop-opacity:0.6338"/>
	<stop  offset="0.8451" style="stop-color:#121212;stop-opacity:0.6217"/>
	<stop  offset="0.9271" style="stop-color:#050505;stop-opacity:0.6102"/>
	<stop  offset="1" style="stop-color:#000000;stop-opacity:0.6"/>
</linearGradient>
<path fill="url(#SVGID_2_)" stroke="#1A1A1A" stroke-width="0.5" stroke-miterlimit="10" d="M941.938,596.236
	c0,184.863-150.525,334.737-336.212,334.737c-185.678,0-336.206-149.874-336.206-334.737c0-184.874,150.528-334.737,336.206-334.737
	C791.412,261.499,941.938,411.362,941.938,596.236z"/>
<linearGradient id="SVGID_3_" gradientUnits="userSpaceOnUse" x1="284.2207" y1="498.001" x2="927.1853" y2="694.575">
	<stop  offset="0" style="stop-color:#000000;stop-opacity:0.29"/>
	<stop  offset="0.1357" style="stop-color:#030303;stop-opacity:0.3931"/>
	<stop  offset="0.229" style="stop-color:#0C0C0C;stop-opacity:0.464"/>
	<stop  offset="0.3096" style="stop-color:#1B1B1B;stop-opacity:0.5253"/>
	<stop  offset="0.3829" style="stop-color:#313131;stop-opacity:0.581"/>
	<stop  offset="0.4507" style="stop-color:#4D4D4D;stop-opacity:0.6325"/>
	<stop  offset="0.5" style="stop-color:#666666;stop-opacity:0.67"/>
	<stop  offset="0.5169" style="stop-color:#565656;stop-opacity:0.6619"/>
	<stop  offset="0.5515" style="stop-color:#3B3B3B;stop-opacity:0.6453"/>
	<stop  offset="0.5913" style="stop-color:#252525;stop-opacity:0.6262"/>
	<stop  offset="0.6379" style="stop-color:#141414;stop-opacity:0.6038"/>
	<stop  offset="0.6953" style="stop-color:#090909;stop-opacity:0.5762"/>
	<stop  offset="0.776" style="stop-color:#020202;stop-opacity:0.5375"/>
	<stop  offset="1" style="stop-color:#000000;stop-opacity:0.43"/>
</linearGradient>
<path fill="url(#SVGID_3_)" stroke="#1A1A1A" stroke-width="0.5" stroke-miterlimit="10" d="M941.911,596.288
	c0,184.863-150.524,334.736-336.211,334.736c-185.677,0-336.205-149.873-336.205-334.736c0-184.873,150.528-334.737,336.205-334.737
	C791.387,261.551,941.911,411.416,941.911,596.288z"/>
<path fill="#135A76" stroke="#0D3E51" stroke-width="2" stroke-miterlimit="10" d="M774.15,596.13
	c0,92.197-75.883,166.93-169.49,166.93c-93.606,0-169.488-74.733-169.488-166.93c0-92.195,75.882-166.933,169.488-166.933
	C698.268,429.197,774.15,503.936,774.15,596.13z"/>
<ellipse fill="#FFFFFF" stroke="#0D3E51" stroke-miterlimit="10" cx="604.661" cy="591.947" rx="42.717" ry="42.07"/>
</svg>
