<?xml version="1.0" encoding="utf-8"?>
<!-- Generator: Adobe Illustrator 15.0.0, SVG Export Plug-In . SVG Version: 6.00 Build 0)  -->
<!DOCTYPE svg PUBLIC "-//W3C//DTD SVG 1.1//EN" "http://www.w3.org/Graphics/SVG/1.1/DTD/svg11.dtd">
<svg version="1.1" xmlns="http://www.w3.org/2000/svg" xmlns:xlink="http://www.w3.org/1999/xlink" x="0px" y="0px" width="1200px"
	 height="1200px" viewBox="0 0 1200 1200" enable-background="new 0 0 1200 1200" xml:space="preserve">
<g id="Calque_1">
	<rect x="59.466" y="67.764" fill="none" width="720.068" height="699.07"/>
	<text transform="matrix(1 0 0 1 59.4653 202.583)"><tspan x="0" y="0" fill="#135A76" font-family="'Lato-Black'" font-size="180">FRIDAY </tspan><tspan x="0" y="176" fill="#135A76" font-family="'Lato-Black'" font-size="180">WEAR</tspan></text>
	<rect x="17.761" y="833.843" fill="none" width="705.071" height="309.031"/>
	<text transform="matrix(1 0 0 1 61.064 1133.6719)" fill="#135A76" font-family="'Lato-Black'" font-size="88">14H30 — 18H30</text>
</g>
<g id="Calque_4">
</g>
<g id="Calque_2">
	<g>
		<path fill="none" stroke="#000000" stroke-width="6" stroke-miterlimit="10" d="M950.586,415.6
			c83.986,1.272,146.993,71.997,147.914,137.993c1.423,101.985,0.5,330.74,0.5,330.74s-18.748,146.236-151.414,146.236
			c-112.494,0-157.253-91.57-157.253-144.236c0-46.498-1.265-304.247-1.739-323.74C787.281,508.596,851.591,414.101,950.586,415.6z"
			/>
		<path d="M1082,494c0,0,5.5,39.001,5.5,52.5S1082,720,1082,720s-9.167,14.334-31.666,14.334s-35.376-5.248-35.376-14.248
			s3.182-190.061,1.979-205.086c-1.333-16.667-9.777-38.108-29.969-36.667c-9.333,0.667-17.745,17.833-18.651,34
			c-2.61,46.579-0.65,140-1.317,188c-0.226,16.24-17.261,24.304-21.333,26c-21.628,9.011-125.762,11.002-136.667-2
			c-17.332-20.666-11.334-159.668-11.334-174.667s8.539-41.372,5.525-39.422c-1.785,1.155-14.006,24.959-14.365,46.867
			c-1.4,85.324,1.389,332.691,2.508,341.556c2.57,20.365,12.824,63.841,46.666,90.833c0.151,0.121,32.388,26.357,27,19.5
			c-29.333-37.334-60.193-76.073-62.667-114.666C799,842.333,810.77,825.869,820.334,825c51.334-4.667,121.829-3.103,134.666,12
			c11.334,13.334,0.666,77.334,6.086,106.574c3.292,17.76,9.247,38.093,32.58,37.426c15.653-0.447,30.417-25.427,30.417-73.424
			s-1.2-61.271,0.917-65.242c5.333-10,15.667-18,30.666-18s29.168,7.167,30.667,20.666s6.666,40.667-8.667,79.334
			c-11.749,29.629-31.068,57.683-33.666,63.166c-4.5,9.5,4.1,3.014-0.334,6.834C1054.5,985,1091.621,943.74,1099,882.5
			c2.959-24.561-0.5-333.5-0.5-333.5l-3.5-23.5L1082,494z"/>
		<path stroke="#000000" stroke-miterlimit="10" d="M1107,758.5h-8l0.667,56.75l6.666-0.791l1.917-10.729l3.25-0.729v5l12.583,0.334
			l4.579-4.664c0,0,0.335,85.333,0.335,85.667c0,25.93-13.492,77.793-58.028,122.33c-46.666,46.667-94.651,46-94.651,46
			l-0.658-11.333l-60.661,0.67l-3.498,1.667v10c-27.524-7.565-54.651-8.9-104.418-58.667c-9.732-9.732-46.418-64.764-46.418-106.667
			c0-52.666-0.332-91.334-0.332-91.334L759.834,793l4.666-0.666V810l10.25,1.25l0.916-13.75H778l0.334,14.417l10,2.125L790,758.5h-8
			l-1,23h-5.5v-15H763l-19.5,0.5v-2.5H720l1,41h15l0.332-12.166l9.332,7.669c0,0,0.335,86.584,0.335,87.331
			c0,24.665,9.665,73.337,46.665,115.671c47.288,54.105,88.667,61.667,119.334,68.666l0.333,21.666l-94.999-0.332
			c0,0-6.707-0.255-11.707,5.745s-3.293,32.588-3.293,32.588l287.999-0.333L1090,1105.75c0,0-10.669-6.412-14.669-9.412
			s-99.333-0.333-99.333-0.333l0.333-23.667c18-1.667,50.573-12.048,78.999-30.001c1.438-0.908,88.17-57.896,88.17-161.837
			l-0.667-76.5l-0.085-6.664l3.752-0.333v7.497h19l0.162-43.83l-18.162-0.334v6.164l-21.838-0.248l-1-5.752h-12l-0.667,19.084
			l-3.245,0.04L1107,758.5z"/>
		<path fill="none" stroke="#FFFFFF" stroke-width="4" stroke-miterlimit="10" d="M752,803.999c0,0-0.666,64.667-0.666,78
			c0,26.343,11.762,86.762,57.333,132.333c40.077,40.078,97.961,51.721,102,51.667"/>
		<path fill="none" stroke="#FFFFFF" stroke-width="4" stroke-miterlimit="10" d="M1137.587,802.999c0,0,0.747,66.889,0.747,80.68
			c0,27.247-12.232,86.185-63.334,133.321c-48.712,44.933-95.094,49.086-102,49"/>
		<path fill="#FFFFFF" d="M930,1049.5l-1,61.5c0,0-108.5,0-112,0s-3,22-3,22h-6.5c0,0-0.5-25.654,4-28.786
			c4.5-3.131,7.5-3.214,7.5-3.214h96.5l1-50.006l2-2.041l4.5,0.389L930,1049.5z"/>
		<ellipse cx="940" cy="709" rx="7" ry="6"/>
		<ellipse cx="960" cy="709" rx="7" ry="6"/>
		<ellipse cx="920" cy="709" rx="7" ry="6"/>
		<ellipse cx="931" cy="728" rx="7" ry="6"/>
		<ellipse cx="953" cy="728" rx="7" ry="6"/>
		<ellipse cx="900" cy="709" rx="7" ry="6"/>
		<ellipse cx="880.5" cy="709" rx="6.5" ry="6"/>
		<ellipse cx="1037" cy="709" rx="7" ry="6"/>
		<ellipse cx="1017" cy="709" rx="7" ry="6"/>
		<ellipse cx="1057" cy="709" rx="7" ry="6"/>
		<ellipse cx="1077" cy="709" rx="7" ry="6"/>
		<ellipse cx="1028" cy="726" rx="7" ry="6"/>
		<ellipse cx="1008" cy="726" rx="7" ry="6"/>
		<ellipse cx="1048" cy="726" rx="7" ry="6"/>
		<ellipse cx="1068" cy="726" rx="7" ry="6"/>
		<ellipse cx="1084" cy="726" rx="7" ry="6"/>
		<ellipse cx="910.5" cy="729" rx="6.5" ry="6"/>
		<ellipse cx="862.5" cy="709" rx="6.5" ry="6"/>
		<ellipse cx="891.5" cy="729" rx="6.5" ry="6"/>
		<ellipse cx="846" cy="709" rx="5" ry="6"/>
		<ellipse cx="856" cy="728" rx="5" ry="6"/>
		<ellipse cx="872" cy="728" rx="5" ry="6"/>
		<ellipse cx="832.167" cy="709" rx="4.219" ry="6"/>
		<ellipse cx="841.167" cy="728" rx="4.219" ry="6"/>
		<ellipse cx="818.167" cy="709" rx="3.428" ry="6"/>
		<ellipse cx="826.167" cy="727" rx="3.428" ry="6"/>
		<ellipse cx="808.167" cy="709" rx="3.428" ry="6"/>
		<ellipse cx="932" cy="690" rx="7" ry="6"/>
		<ellipse cx="952" cy="690" rx="7" ry="6"/>
		<ellipse cx="971" cy="690" rx="7" ry="6"/>
		<ellipse cx="912" cy="690" rx="7" ry="6"/>
		<ellipse cx="892" cy="690" rx="7" ry="6"/>
		<ellipse cx="872.5" cy="690" rx="6.5" ry="6"/>
		<ellipse cx="1047" cy="690" rx="7" ry="6"/>
		<ellipse cx="1027" cy="690" rx="7" ry="6"/>
		<ellipse cx="1008" cy="690" rx="7" ry="6"/>
		<ellipse cx="1067" cy="690" rx="7" ry="6"/>
		<ellipse cx="1087" cy="690" rx="7" ry="6"/>
		<ellipse cx="854.5" cy="690" rx="6.5" ry="6"/>
		<ellipse cx="838" cy="690" rx="5" ry="6"/>
		<ellipse cx="824.167" cy="690" rx="4.219" ry="6"/>
		<ellipse cx="810.167" cy="690" rx="3.428" ry="6"/>
		<ellipse cx="800.167" cy="690" rx="3.428" ry="6"/>
		<ellipse cx="940" cy="672" rx="7" ry="6"/>
		<ellipse cx="960" cy="672" rx="7" ry="6"/>
		<ellipse cx="920" cy="672" rx="7" ry="6"/>
		<ellipse cx="900" cy="672" rx="7" ry="6"/>
		<ellipse cx="880.5" cy="672" rx="6.5" ry="6"/>
		<ellipse cx="1037" cy="672" rx="7" ry="6"/>
		<ellipse cx="1017" cy="672" rx="7" ry="6"/>
		<ellipse cx="1057" cy="672" rx="7" ry="6"/>
		<ellipse cx="1077" cy="672" rx="7" ry="6"/>
		<ellipse cx="862.5" cy="672" rx="6.5" ry="6"/>
		<ellipse cx="846" cy="672" rx="5" ry="6"/>
		<ellipse cx="832.167" cy="672" rx="4.219" ry="6"/>
		<ellipse cx="818.167" cy="672" rx="3.428" ry="6"/>
		<ellipse cx="808.167" cy="672" rx="3.428" ry="6"/>
		<ellipse cx="799.167" cy="672" rx="3.428" ry="6"/>
		<ellipse cx="933" cy="653" rx="7" ry="6"/>
		<ellipse cx="953" cy="653" rx="7" ry="6"/>
		<ellipse cx="971" cy="653" rx="7" ry="6"/>
		<ellipse cx="913" cy="653" rx="7" ry="6"/>
		<ellipse cx="893" cy="653" rx="7" ry="6"/>
		<ellipse cx="873.5" cy="653" rx="6.5" ry="6"/>
		<ellipse cx="1030" cy="653" rx="7" ry="6"/>
		<ellipse cx="1012" cy="653" rx="7" ry="6"/>
		<ellipse cx="1050" cy="653" rx="7" ry="6"/>
		<ellipse cx="1070" cy="653" rx="7" ry="6"/>
		<ellipse cx="1087.5" cy="653" rx="6.5" ry="6"/>
		<ellipse cx="855.5" cy="653" rx="6.5" ry="6"/>
		<ellipse cx="839" cy="653" rx="5" ry="6"/>
		<ellipse cx="825.167" cy="653" rx="4.219" ry="6"/>
		<ellipse cx="811.167" cy="653" rx="3.428" ry="6"/>
		<ellipse cx="801.167" cy="653" rx="3.428" ry="6"/>
		<ellipse cx="940" cy="634" rx="7" ry="6"/>
		<ellipse cx="960" cy="634" rx="7" ry="6"/>
		<ellipse cx="920" cy="634" rx="7" ry="6"/>
		<ellipse cx="900" cy="634" rx="7" ry="6"/>
		<ellipse cx="880.5" cy="634" rx="6.5" ry="6"/>
		<ellipse cx="862.5" cy="634" rx="6.5" ry="6"/>
		<ellipse cx="846" cy="634" rx="5" ry="6"/>
		<ellipse cx="1017" cy="634" rx="7" ry="6"/>
		<ellipse cx="1037" cy="634" rx="7" ry="6"/>
		<ellipse cx="1056.5" cy="634" rx="6.5" ry="6"/>
		<ellipse cx="1074.5" cy="634" rx="6.5" ry="6"/>
		<ellipse cx="1091" cy="634" rx="5" ry="6"/>
		<ellipse cx="1008" cy="616" rx="7" ry="6"/>
		<ellipse cx="1028" cy="616" rx="7" ry="6"/>
		<ellipse cx="1047.5" cy="616" rx="6.5" ry="6"/>
		<ellipse cx="1065.5" cy="616" rx="6.5" ry="6"/>
		<ellipse cx="1082" cy="616" rx="5" ry="6"/>
		<ellipse cx="1016" cy="598" rx="7" ry="6"/>
		<ellipse cx="1036" cy="598" rx="7" ry="6"/>
		<ellipse cx="1055.5" cy="598" rx="6.5" ry="6"/>
		<ellipse cx="1073.5" cy="598" rx="6.5" ry="6"/>
		<ellipse cx="1090" cy="598" rx="5" ry="6"/>
		<ellipse cx="832.167" cy="634" rx="4.219" ry="6"/>
		<ellipse cx="818.167" cy="634" rx="3.428" ry="6"/>
		<ellipse cx="808.167" cy="634" rx="3.428" ry="6"/>
		<ellipse cx="798.167" cy="634" rx="3.428" ry="6"/>
		<ellipse cx="932" cy="617" rx="7" ry="6"/>
		<ellipse cx="952" cy="617" rx="7" ry="6"/>
		<ellipse cx="970" cy="617" rx="7" ry="6"/>
		<ellipse cx="912" cy="617" rx="7" ry="6"/>
		<ellipse cx="892" cy="617" rx="7" ry="6"/>
		<ellipse cx="872.5" cy="617" rx="6.5" ry="6"/>
		<ellipse cx="854.5" cy="617" rx="6.5" ry="6"/>
		<ellipse cx="838" cy="617" rx="5" ry="6"/>
		<ellipse cx="824.167" cy="617" rx="4.219" ry="6"/>
		<ellipse cx="810.167" cy="617" rx="3.428" ry="6"/>
		<ellipse cx="798.167" cy="617" rx="3.428" ry="6"/>
		<ellipse cx="940" cy="598" rx="7" ry="6"/>
		<ellipse cx="960" cy="598" rx="7" ry="6"/>
		<ellipse cx="920" cy="598" rx="7" ry="6"/>
		<ellipse cx="900" cy="598" rx="7" ry="6"/>
		<ellipse cx="880.5" cy="598" rx="6.5" ry="6"/>
		<ellipse cx="862.5" cy="598" rx="6.5" ry="6"/>
		<ellipse cx="846" cy="598" rx="5" ry="6"/>
		<ellipse cx="832.167" cy="598" rx="4.219" ry="6"/>
		<ellipse cx="818.167" cy="598" rx="3.428" ry="6"/>
		<ellipse cx="808.167" cy="598" rx="3.428" ry="6"/>
		<ellipse cx="798.167" cy="598" rx="3.428" ry="6"/>
		<ellipse cx="932" cy="579" rx="7" ry="6"/>
		<ellipse cx="952" cy="579" rx="7" ry="6"/>
		<ellipse cx="970" cy="579" rx="7" ry="6"/>
		<ellipse cx="912" cy="579" rx="7" ry="6"/>
		<ellipse cx="892" cy="579" rx="7" ry="6"/>
		<ellipse cx="872.5" cy="579" rx="6.5" ry="6"/>
		<ellipse cx="854.5" cy="579" rx="6.5" ry="6"/>
		<ellipse cx="838" cy="579" rx="5" ry="6"/>
		<ellipse cx="824.167" cy="579" rx="4.219" ry="6"/>
		<ellipse cx="1025.947" cy="579" rx="7" ry="6"/>
		<ellipse cx="1045.447" cy="579" rx="6.5" ry="6"/>
		<ellipse cx="1063.447" cy="579" rx="6.5" ry="6"/>
		<ellipse cx="1079.947" cy="579" rx="5" ry="6"/>
		<ellipse cx="1093.781" cy="579" rx="4.219" ry="6"/>
		<ellipse cx="1001.947" cy="560" rx="7" ry="6"/>
		<ellipse cx="1021.447" cy="560" rx="6.5" ry="6"/>
		<ellipse cx="1039.447" cy="560" rx="6.5" ry="6"/>
		<ellipse cx="1055.947" cy="560" rx="5" ry="6"/>
		<ellipse cx="1069.781" cy="560" rx="4.219" ry="6"/>
		<ellipse cx="1084.781" cy="560" rx="4.219" ry="6"/>
		<ellipse cx="810.167" cy="579" rx="3.428" ry="6"/>
		<ellipse cx="799.167" cy="579" rx="3.428" ry="6"/>
		<ellipse cx="941" cy="560" rx="7" ry="6"/>
		<ellipse cx="961" cy="560" rx="7" ry="6"/>
		<ellipse cx="921" cy="560" rx="7" ry="6"/>
		<ellipse cx="901" cy="560" rx="7" ry="6"/>
		<ellipse cx="881.5" cy="560" rx="6.5" ry="6"/>
		<ellipse cx="863.5" cy="560" rx="6.5" ry="6"/>
		<ellipse cx="847" cy="560" rx="5" ry="6"/>
		<ellipse cx="833.167" cy="560" rx="4.219" ry="6"/>
		<ellipse cx="819.167" cy="560" rx="3.428" ry="6"/>
		<ellipse cx="809.167" cy="560" rx="3.428" ry="6"/>
		<ellipse cx="799.167" cy="560" rx="3.428" ry="6"/>
		<ellipse cx="935" cy="541" rx="7" ry="6"/>
		<ellipse cx="955" cy="541" rx="7" ry="6"/>
		<ellipse cx="971" cy="541" rx="7" ry="6"/>
		<ellipse cx="915" cy="541" rx="7" ry="6"/>
		<ellipse cx="895" cy="541" rx="7" ry="6"/>
		<ellipse cx="875.5" cy="541" rx="6.5" ry="6"/>
		<ellipse cx="857.5" cy="541" rx="6.5" ry="6"/>
		<ellipse cx="843" cy="541" rx="5" ry="6"/>
		<ellipse cx="829.167" cy="541" rx="4.219" ry="6"/>
		<ellipse cx="1009.947" cy="541" rx="7" ry="6"/>
		<ellipse cx="1029.447" cy="541" rx="6.5" ry="6"/>
		<ellipse cx="1047.447" cy="541" rx="6.5" ry="6"/>
		<ellipse cx="1061.947" cy="541" rx="5" ry="6"/>
		<ellipse cx="1075.781" cy="541" rx="4.219" ry="6"/>
		<ellipse cx="1087.781" cy="541" rx="4.219" ry="6"/>
		<ellipse cx="1017.947" cy="523" rx="7" ry="6"/>
		<ellipse cx="1037.447" cy="523" rx="6.5" ry="6"/>
		<ellipse cx="1055.447" cy="523" rx="6.5" ry="6"/>
		<ellipse cx="1069.947" cy="523" rx="5" ry="6"/>
		<ellipse cx="1083.781" cy="523" rx="4.219" ry="6"/>
		<ellipse cx="815.167" cy="541" rx="3.428" ry="6"/>
		<ellipse cx="801.167" cy="541" rx="3.428" ry="6"/>
		<ellipse cx="942" cy="523" rx="7" ry="6"/>
		<ellipse cx="962" cy="523" rx="7" ry="6"/>
		<ellipse cx="922" cy="523" rx="7" ry="6"/>
		<ellipse cx="902" cy="523" rx="7" ry="6"/>
		<ellipse cx="882.5" cy="523" rx="6.5" ry="6"/>
		<ellipse cx="867.5" cy="523" rx="6.5" ry="6"/>
		<ellipse cx="851" cy="523" rx="5" ry="6"/>
		<ellipse cx="837.167" cy="523" rx="4.219" ry="6"/>
		<ellipse cx="826.167" cy="523" rx="3.428" ry="6"/>
		<ellipse cx="816.167" cy="523" rx="3.428" ry="6"/>
		<ellipse cx="803.167" cy="523" rx="3.428" ry="6"/>
		<ellipse cx="804.167" cy="725" rx="3.428" ry="6"/>
		<ellipse cx="814.167" cy="727" rx="3.428" ry="6"/>
		<ellipse cx="948.667" cy="506.334" rx="4.667" ry="5"/>
		<ellipse cx="961.667" cy="506.334" rx="4.667" ry="5"/>
		<ellipse cx="933.334" cy="506" rx="5.667" ry="5"/>
		<ellipse cx="915.334" cy="506" rx="5.667" ry="5"/>
		<ellipse cx="897.334" cy="506" rx="5.667" ry="5"/>
		<ellipse cx="881.334" cy="506" rx="5.667" ry="5"/>
		<ellipse cx="864.167" cy="506" rx="4.833" ry="5"/>
		<ellipse cx="848.834" cy="506" rx="4.229" ry="5"/>
		<ellipse cx="838.699" cy="506" rx="3.329" ry="5"/>
		<ellipse cx="827.686" cy="506" rx="3.32" ry="5"/>
		<ellipse cx="818.686" cy="506" rx="3.32" ry="5"/>
		<ellipse cx="808.503" cy="506" rx="2.584" ry="5"/>
		<ellipse cx="957.731" cy="489.334" rx="4.603" ry="5"/>
		<ellipse cx="942.675" cy="490" rx="5.589" ry="5"/>
		<ellipse cx="924.921" cy="490" rx="5.589" ry="5"/>
		<ellipse cx="907.167" cy="490" rx="5.59" ry="5"/>
		<ellipse cx="891.386" cy="490" rx="5.59" ry="5"/>
		<ellipse cx="874.453" cy="490" rx="4.768" ry="5"/>
		<ellipse cx="859.33" cy="490" rx="4.171" ry="5"/>
		<ellipse cx="1006.748" cy="490" rx="5.589" ry="5"/>
		<ellipse cx="1024.502" cy="490" rx="5.59" ry="5"/>
		<ellipse cx="1040.283" cy="490" rx="5.59" ry="5"/>
		<ellipse cx="1057.216" cy="490" rx="4.768" ry="5"/>
		<ellipse cx="1072.339" cy="490" rx="4.171" ry="5"/>
		<ellipse cx="1014.748" cy="507" rx="5.589" ry="5"/>
		<ellipse cx="1032.502" cy="507" rx="5.59" ry="5"/>
		<ellipse cx="1048.283" cy="507" rx="5.59" ry="5"/>
		<ellipse cx="1065.216" cy="507" rx="4.768" ry="5"/>
		<ellipse cx="1080.339" cy="507" rx="4.171" ry="5"/>
		<ellipse cx="849.332" cy="490" rx="3.283" ry="5"/>
		<ellipse cx="838.47" cy="490" rx="3.274" ry="5"/>
		<ellipse cx="829.593" cy="490" rx="3.274" ry="5"/>
		<ellipse cx="819.549" cy="490" rx="2.549" ry="5"/>
		<ellipse cx="963.129" cy="475.334" rx="4.205" ry="5"/>
		<ellipse cx="949.808" cy="475" rx="5.106" ry="5"/>
		<ellipse cx="933.589" cy="475" rx="5.105" ry="5"/>
		<ellipse cx="917.37" cy="475" rx="5.106" ry="5"/>
		<ellipse cx="902.954" cy="475" rx="5.107" ry="5"/>
		<ellipse cx="1035.129" cy="475.334" rx="4.205" ry="5"/>
		<ellipse cx="1021.808" cy="475" rx="5.106" ry="5"/>
		<ellipse cx="1005.589" cy="475" rx="5.105" ry="5"/>
		<ellipse cx="989.37" cy="475" rx="5.106" ry="5"/>
		<ellipse cx="974.954" cy="475" rx="5.107" ry="5"/>
		<ellipse cx="887.485" cy="475" rx="4.355" ry="5"/>
		<ellipse cx="873.669" cy="475" rx="3.811" ry="5"/>
		<ellipse cx="864.536" cy="475" rx="3" ry="5"/>
		<ellipse cx="854.613" cy="475" rx="2.992" ry="5"/>
		<ellipse cx="846.503" cy="475" rx="2.992" ry="5"/>
		<ellipse cx="1047.867" cy="475" rx="4.355" ry="5"/>
		<ellipse cx="1061.683" cy="475" rx="3.811" ry="5"/>
		<ellipse cx="837.329" cy="475" rx="2.329" ry="5"/>
		<ellipse cx="830.329" cy="475" rx="2.329" ry="5"/>
		<ellipse cx="954.456" cy="460.334" rx="3.878" ry="5"/>
		<ellipse cx="941.557" cy="461" rx="4.709" ry="5"/>
		<ellipse cx="926.599" cy="461" rx="4.709" ry="5"/>
		<ellipse cx="911.639" cy="461" rx="4.709" ry="5"/>
		<ellipse cx="898.342" cy="461" rx="4.71" ry="5"/>
		<ellipse cx="884.076" cy="461" rx="4.017" ry="5"/>
		<ellipse cx="873.333" cy="461" rx="3.515" ry="5"/>
		<ellipse cx="862.908" cy="461" rx="2.767" ry="5"/>
		<ellipse cx="853.756" cy="461" rx="2.759" ry="5"/>
		<ellipse cx="846.277" cy="461" rx="2.759" ry="5"/>
		<ellipse cx="969.295" cy="460.334" rx="4.709" ry="5"/>
		<ellipse cx="984.254" cy="460.334" rx="4.709" ry="5"/>
		<ellipse cx="999.213" cy="460.334" rx="4.709" ry="5"/>
		<ellipse cx="1012.51" cy="460.334" rx="4.71" ry="5"/>
		<ellipse cx="1026.777" cy="460.334" rx="4.017" ry="5"/>
		<ellipse cx="1037.52" cy="460.334" rx="3.515" ry="5"/>
		<ellipse cx="1047.944" cy="460.334" rx="2.767" ry="5"/>
		<ellipse cx="962.752" cy="447.865" rx="3.582" ry="4.531"/>
		<ellipse cx="950.142" cy="448.469" rx="4.35" ry="4.531"/>
		<ellipse cx="936.326" cy="448.469" rx="4.35" ry="4.531"/>
		<ellipse cx="922.507" cy="448.469" rx="4.35" ry="4.531"/>
		<ellipse cx="910.226" cy="448.469" rx="4.351" ry="4.531"/>
		<ellipse cx="897.048" cy="448.469" rx="3.71" ry="4.531"/>
		<ellipse cx="885.278" cy="448.469" rx="3.247" ry="4.531"/>
		<ellipse cx="877.496" cy="448.469" rx="2.556" ry="4.531"/>
		<ellipse cx="869.042" cy="448.469" rx="2.548" ry="4.531"/>
		<ellipse cx="862.134" cy="448.469" rx="2.548" ry="4.531"/>
		<ellipse cx="953.86" cy="437.765" rx="3.508" ry="3.965"/>
		<ellipse cx="963.86" cy="437.765" rx="3.508" ry="3.965"/>
		<ellipse cx="942.721" cy="437.765" rx="3.507" ry="3.965"/>
		<ellipse cx="931.58" cy="437.765" rx="3.507" ry="3.965"/>
		<ellipse cx="921.678" cy="437.765" rx="3.508" ry="3.965"/>
		<ellipse cx="911.052" cy="437.765" rx="2.992" ry="3.965"/>
		<ellipse cx="901.562" cy="437.765" rx="2.618" ry="3.965"/>
		<ellipse cx="895.289" cy="437.765" rx="2.061" ry="3.965"/>
		<ellipse cx="888.473" cy="437.765" rx="2.055" ry="3.965"/>
		<ellipse cx="882.902" cy="437.765" rx="2.055" ry="3.965"/>
		<ellipse cx="876.6" cy="437.765" rx="1.599" ry="3.965"/>
		<ellipse cx="954.047" cy="428.92" rx="3.012" ry="2.757"/>
		<ellipse cx="944.482" cy="428.92" rx="3.011" ry="2.757"/>
		<ellipse cx="934.916" cy="428.92" rx="3.012" ry="2.757"/>
		<ellipse cx="926.414" cy="428.92" rx="3.012" ry="2.757"/>
		<ellipse cx="917.29" cy="428.92" rx="2.569" ry="2.757"/>
		<ellipse cx="909.141" cy="428.92" rx="2.248" ry="2.757"/>
		<ellipse cx="903.754" cy="428.92" rx="1.769" ry="2.757"/>
		<ellipse cx="897.902" cy="428.92" rx="1.764" ry="2.757"/>
		<ellipse cx="893.119" cy="428.92" rx="1.764" ry="2.757"/>
		<ellipse cx="887.707" cy="428.92" rx="1.373" ry="2.757"/>
		<ellipse cx="962.752" cy="447.865" rx="3.582" ry="4.531"/>
		<ellipse cx="950.142" cy="448.469" rx="4.35" ry="4.531"/>
		<ellipse cx="936.326" cy="448.469" rx="4.35" ry="4.531"/>
		<ellipse cx="922.507" cy="448.469" rx="4.35" ry="4.531"/>
		<ellipse cx="910.226" cy="448.469" rx="4.351" ry="4.531"/>
		<ellipse cx="897.048" cy="448.469" rx="3.71" ry="4.531"/>
		<ellipse cx="885.278" cy="448.469" rx="3.247" ry="4.531"/>
		<ellipse cx="877.496" cy="448.469" rx="2.556" ry="4.531"/>
		<ellipse cx="869.042" cy="448.469" rx="2.548" ry="4.531"/>
		<ellipse cx="862.134" cy="448.469" rx="2.548" ry="4.531"/>
		<ellipse cx="976.168" cy="448.469" rx="3.582" ry="4.531"/>
		<ellipse cx="988.778" cy="447.865" rx="4.35" ry="4.531"/>
		<ellipse cx="1002.594" cy="447.865" rx="4.35" ry="4.531"/>
		<ellipse cx="1016.413" cy="447.865" rx="4.35" ry="4.531"/>
		<ellipse cx="1028.694" cy="447.865" rx="4.351" ry="4.531"/>
		<ellipse cx="976.168" cy="448.469" rx="3.582" ry="4.531"/>
		<ellipse cx="988.778" cy="447.865" rx="4.35" ry="4.531"/>
		<ellipse cx="1002.594" cy="447.865" rx="4.35" ry="4.531"/>
		<ellipse cx="1016.413" cy="447.865" rx="4.35" ry="4.531"/>
		<ellipse cx="1028.694" cy="447.865" rx="4.351" ry="4.531"/>
		<ellipse cx="953.86" cy="437.765" rx="3.508" ry="3.965"/>
		<ellipse cx="963.86" cy="437.765" rx="3.508" ry="3.965"/>
		<ellipse cx="942.721" cy="437.765" rx="3.507" ry="3.965"/>
		<ellipse cx="931.58" cy="437.765" rx="3.507" ry="3.965"/>
		<ellipse cx="921.678" cy="437.765" rx="3.508" ry="3.965"/>
		<ellipse cx="911.052" cy="437.765" rx="2.992" ry="3.965"/>
		<ellipse cx="901.562" cy="437.765" rx="2.618" ry="3.965"/>
		<ellipse cx="895.289" cy="437.765" rx="2.061" ry="3.965"/>
		<ellipse cx="888.473" cy="437.765" rx="2.055" ry="3.965"/>
		<ellipse cx="882.902" cy="437.765" rx="2.055" ry="3.965"/>
		<ellipse cx="876.6" cy="437.765" rx="1.599" ry="3.965"/>
		<ellipse cx="984.509" cy="437.765" rx="3.508" ry="3.965"/>
		<ellipse cx="974.509" cy="437.765" rx="3.508" ry="3.965"/>
		<ellipse cx="995.648" cy="437.765" rx="3.507" ry="3.965"/>
		<ellipse cx="1006.79" cy="437.765" rx="3.507" ry="3.965"/>
		<ellipse cx="1016.691" cy="437.765" rx="3.508" ry="3.965"/>
		<ellipse cx="984.509" cy="437.765" rx="3.508" ry="3.965"/>
		<ellipse cx="974.509" cy="437.765" rx="3.508" ry="3.965"/>
		<ellipse cx="995.648" cy="437.765" rx="3.507" ry="3.965"/>
		<ellipse cx="1006.79" cy="437.765" rx="3.507" ry="3.965"/>
		<ellipse cx="1016.691" cy="437.765" rx="3.508" ry="3.965"/>
		<ellipse cx="911.052" cy="437.765" rx="2.992" ry="3.965"/>
		<ellipse cx="954.047" cy="428.92" rx="3.012" ry="2.757"/>
		<ellipse cx="944.482" cy="428.92" rx="3.011" ry="2.757"/>
		<ellipse cx="934.916" cy="428.92" rx="3.012" ry="2.757"/>
		<ellipse cx="926.414" cy="428.92" rx="3.012" ry="2.757"/>
		<ellipse cx="917.29" cy="428.92" rx="2.569" ry="2.757"/>
		<ellipse cx="909.141" cy="428.92" rx="2.248" ry="2.757"/>
		<ellipse cx="903.754" cy="428.92" rx="1.769" ry="2.757"/>
		<ellipse cx="897.902" cy="428.92" rx="1.764" ry="2.757"/>
		<ellipse cx="965.15" cy="428.92" rx="3.012" ry="2.757"/>
		<ellipse cx="974.715" cy="428.92" rx="3.011" ry="2.757"/>
		<ellipse cx="984.281" cy="428.92" rx="3.012" ry="2.757"/>
		<ellipse cx="992.784" cy="428.92" rx="3.012" ry="2.757"/>
		<ellipse cx="1001.908" cy="428.92" rx="2.569" ry="2.757"/>
		<ellipse cx="1010.056" cy="428.92" rx="2.248" ry="2.757"/>
		<ellipse cx="965.15" cy="428.92" rx="3.012" ry="2.757"/>
		<ellipse cx="974.715" cy="428.92" rx="3.011" ry="2.757"/>
		<ellipse cx="984.281" cy="428.92" rx="3.012" ry="2.757"/>
		<ellipse cx="992.784" cy="428.92" rx="3.012" ry="2.757"/>
		<ellipse cx="1001.908" cy="428.92" rx="2.569" ry="2.757"/>
		<ellipse cx="1010.056" cy="428.92" rx="2.248" ry="2.757"/>
		<ellipse cx="893.119" cy="428.92" rx="1.764" ry="2.757"/>
		<ellipse cx="887.707" cy="428.92" rx="1.373" ry="2.757"/>
		<ellipse cx="959.854" cy="419.553" rx="2.48" ry="2.757"/>
		<ellipse cx="949.047" cy="419.92" rx="3.012" ry="2.757"/>
		<ellipse cx="939.482" cy="419.92" rx="3.011" ry="2.757"/>
		<ellipse cx="981.047" cy="419.92" rx="3.012" ry="2.757"/>
		<ellipse cx="971.482" cy="419.92" rx="3.011" ry="2.757"/>
		<ellipse cx="929.916" cy="419.92" rx="3.012" ry="2.757"/>
		<ellipse cx="921.414" cy="419.92" rx="3.012" ry="2.757"/>
		<ellipse cx="912.29" cy="419.92" rx="2.569" ry="2.757"/>
		<ellipse cx="971.334" cy="490" rx="5.667" ry="5"/>
	</g>
</g>
<g id="Calque_3">
</g>
</svg>
