<?xml version="1.0" encoding="utf-8"?>
<!-- Generator: Adobe Illustrator 15.0.0, SVG Export Plug-In . SVG Version: 6.00 Build 0)  -->
<!DOCTYPE svg PUBLIC "-//W3C//DTD SVG 1.1//EN" "http://www.w3.org/Graphics/SVG/1.1/DTD/svg11.dtd">
<svg version="1.1" id="Calque_1" xmlns="http://www.w3.org/2000/svg" xmlns:xlink="http://www.w3.org/1999/xlink" x="0px" y="0px"
	 width="1200px" height="1200px" viewBox="0 0 1200 1200" enable-background="new 0 0 1200 1200" xml:space="preserve">
<rect x="64" y="73" fill="none" width="1177" height="1016.02"/>
<text transform="matrix(1 0 0 1 64.001 192.8379)"><tspan x="0" y="0" fill="#135A76" font-family="'Lato-Black'" font-size="160">NOUVEAUTÉ  </tspan><tspan x="0" y="116" fill="#135A76" font-family="'Lato-Black'" font-size="88">FAUBOURG </tspan><tspan x="0" y="327.121" font-family="'Lato-Black'" font-size="213.33">SIM</tspan><tspan x="384.203" y="327.121" font-family="'Lato-Black'" font-size="213.33" letter-spacing="36"> </tspan><tspan x="461.64" y="327.121" font-family="'Lato-Black'" font-size="213.33" letter-spacing="85"> </tspan><tspan x="588.144" y="327.121" font-family="'Lato-Black'" font-size="213.33">NE</tspan></text>
<g>
	<path fill="none" stroke="#000000" stroke-width="6" stroke-linecap="round" stroke-miterlimit="10" d="M454.842,762.741
		c0,0,8.402,45.693-23.407,50.503c-22.213,3.365-32.914,6.408-100.168-44.031c-86.025-64.518-157.914-8.279-197.561,0"/>
	
		<linearGradient id="SVGID_1_" gradientUnits="userSpaceOnUse" x1="462.0801" y1="599.6592" x2="555.8564" y2="599.6592" gradientTransform="matrix(0.9513 0.3083 -0.3083 0.9513 187.0752 -79.6055)">
		<stop  offset="0" style="stop-color:#000000"/>
		<stop  offset="0.0164" style="stop-color:#0B0B0B"/>
		<stop  offset="0.0839" style="stop-color:#323232"/>
		<stop  offset="0.1458" style="stop-color:#4F4F4F"/>
		<stop  offset="0.1996" style="stop-color:#606060"/>
		<stop  offset="0.2393" style="stop-color:#666666"/>
		<stop  offset="0.3347" style="stop-color:#525252"/>
		<stop  offset="0.5263" style="stop-color:#2E2E2E"/>
		<stop  offset="0.7067" style="stop-color:#151515"/>
		<stop  offset="0.8697" style="stop-color:#050505"/>
		<stop  offset="1" style="stop-color:#000000"/>
	</linearGradient>
	<path fill="url(#SVGID_1_)" d="M480.923,512.52l-60.34,237.795c0,0,7.23,12.257,28.099,19.235
		c21.439,7.166,33.76,0.379,33.76,0.379l87.846-228.976c0,0-24.458,6.207-48.396-2.075
		C495.781,529.847,480.923,512.52,480.923,512.52z"/>
	<path opacity="0.46" fill="#333333" d="M480.441,514.695c0,0,10.421,19.44,41.285,29.444c30.862,10.003,48.113-1.129,48.113-1.129
		l-4.271,11.819c0,0-20.152,4.47-47.636-5.098c-27.48-9.568-38.599-31.104-38.599-31.104L480.441,514.695z"/>
	
		<linearGradient id="SVGID_2_" gradientUnits="userSpaceOnUse" x1="459.6562" y1="470.9644" x2="558.0103" y2="470.9644" gradientTransform="matrix(0.9513 0.3083 -0.3083 0.9513 187.0752 -79.6055)">
		<stop  offset="0" style="stop-color:#000000"/>
		<stop  offset="0.0156" style="stop-color:#0B0B0B"/>
		<stop  offset="0.0796" style="stop-color:#323232"/>
		<stop  offset="0.1383" style="stop-color:#4F4F4F"/>
		<stop  offset="0.1894" style="stop-color:#606060"/>
		<stop  offset="0.227" style="stop-color:#666666"/>
		<stop  offset="0.352" style="stop-color:#686868"/>
		<stop  offset="0.3971" style="stop-color:#6F6F6F"/>
		<stop  offset="0.4292" style="stop-color:#7A7A7A"/>
		<stop  offset="0.4552" style="stop-color:#8B8B8B"/>
		<stop  offset="0.4771" style="stop-color:#A1A1A1"/>
		<stop  offset="0.4908" style="stop-color:#B3B3B3"/>
		<stop  offset="0.5853" style="stop-color:#7F7F7F"/>
		<stop  offset="0.6812" style="stop-color:#525252"/>
		<stop  offset="0.7735" style="stop-color:#2E2E2E"/>
		<stop  offset="0.8598" style="stop-color:#151515"/>
		<stop  offset="0.9377" style="stop-color:#050505"/>
		<stop  offset="1" style="stop-color:#000000"/>
	</linearGradient>
	<path fill="url(#SVGID_2_)" d="M484.613,493.272c0,0,13.773,20.639,40.464,29.289c28.027,9.081,52.812,0.613,53.413-0.185
		c0.596-0.798-7.517,21.767-7.517,21.767s-21.08,8.902-50.839-0.743c-28.436-9.214-42.346-29.022-42.252-29.318L484.613,493.272z"/>
	
		<radialGradient id="SVGID_3_" cx="508.5522" cy="384.6865" r="84.5635" gradientTransform="matrix(0.6012 -0.7991 0.7831 0.5892 -54.7424 622.8629)" gradientUnits="userSpaceOnUse">
		<stop  offset="0" style="stop-color:#808080"/>
		<stop  offset="0.0822" style="stop-color:#747474"/>
		<stop  offset="0.4555" style="stop-color:#444444"/>
		<stop  offset="0.7399" style="stop-color:#252525"/>
		<stop  offset="0.9" style="stop-color:#1A1A1A"/>
	</radialGradient>
	<path fill="url(#SVGID_3_)" d="M632.707,469.207c-14.397,44.431-62.085,68.773-106.516,54.372
		c-44.43-14.395-68.773-62.085-54.375-106.516c14.397-44.428,62.09-68.776,106.518-54.374
		C622.764,377.085,647.11,424.778,632.707,469.207z"/>
	<path d="M578.642,373.955c-0.541,1.678-3.031,2.37-5.563,1.555c-2.527-0.822-4.136-2.845-3.594-4.522
		c0.545-1.677,3.033-2.371,5.561-1.551C577.575,370.256,579.186,372.278,578.642,373.955z"/>
	<path d="M577.375,387.64c-0.523,1.629-3.002,2.28-5.532,1.458c-2.526-0.814-4.149-2.799-3.622-4.426
		c0.527-1.627,3.006-2.283,5.534-1.465C576.281,384.03,577.906,386.011,577.375,387.64z"/>
	<path d="M569.771,401.325c-0.604,1.869-3.145,2.715-5.678,1.9c-2.523-0.819-4.086-2.998-3.477-4.87
		c0.604-1.87,3.145-2.719,5.675-1.903C568.819,397.271,570.378,399.453,569.771,401.325z"/>
	<path d="M555.899,395.246c-0.606,1.87-3.148,2.718-5.676,1.898c-2.526-0.819-4.087-2.996-3.481-4.866
		c0.604-1.872,3.145-2.721,5.676-1.902C554.946,391.194,556.504,393.374,555.899,395.246z"/>
	<path d="M542.34,388.213c-0.608,1.866-3.15,2.717-5.679,1.896c-2.525-0.819-4.087-3-3.484-4.872
		c0.607-1.866,3.15-2.716,5.678-1.897C541.381,384.16,542.945,386.342,542.34,388.213z"/>
	<ellipse transform="matrix(0.9513 0.3084 -0.3084 0.9513 141.9381 -143.5026)" cx="524.97" cy="377.3" rx="4.814" ry="3.556"/>
	<path d="M590.591,390.865c-0.574,1.759-3.087,2.517-5.614,1.699s-4.115-2.91-3.543-4.67c0.563-1.756,3.078-2.522,5.609-1.702
		C589.57,387.014,591.158,389.106,590.591,390.865z"/>
	<path d="M582.98,404.019c-0.604,1.872-3.146,2.724-5.678,1.9c-2.524-0.816-4.083-2.995-3.482-4.864
		c0.606-1.875,3.154-2.723,5.676-1.905C582.027,399.973,583.588,402.15,582.98,404.019z"/>
	<path d="M597.695,406.151c-0.604,1.871-3.147,2.718-5.675,1.899c-2.53-0.818-4.09-3-3.484-4.872
		c0.606-1.866,3.149-2.715,5.677-1.898C596.739,402.101,598.301,404.281,597.695,406.151z"/>
	<path d="M613.182,405.89c-0.606,1.869-3.146,2.718-5.68,1.898c-2.525-0.821-4.085-2.998-3.479-4.869
		c0.606-1.87,3.149-2.719,5.675-1.9C612.23,401.839,613.787,404.015,613.182,405.89z"/>
	<path d="M626.678,404.981c-0.605,1.867-3.147,2.718-5.676,1.898c-2.527-0.819-4.088-2.998-3.483-4.87
		c0.607-1.869,3.147-2.718,5.68-1.899C625.724,400.93,627.286,403.109,626.678,404.981z"/>
	<path d="M565.28,415.187c-0.604,1.869-3.148,2.717-5.677,1.897c-2.526-0.818-4.087-2.996-3.479-4.867
		c0.607-1.872,3.146-2.723,5.67-1.905C564.329,411.137,565.886,413.313,565.28,415.187z"/>
	<path d="M551.253,409.583c-0.606,1.871-3.144,2.719-5.679,1.897c-2.523-0.816-4.085-2.993-3.479-4.864
		c0.607-1.875,3.148-2.724,5.676-1.903C550.301,405.532,551.862,407.712,551.253,409.583z"/>
	<path d="M537.692,402.543c-0.607,1.872-3.148,2.724-5.679,1.902c-2.53-0.819-4.085-2.996-3.479-4.868
		c0.605-1.87,3.146-2.72,5.674-1.901C536.739,398.498,538.295,400.675,537.692,402.543z"/>
	<path d="M524.127,395.511c-0.599,1.871-3.148,2.717-5.674,1.901c-2.529-0.821-4.087-3.001-3.485-4.871
		c0.606-1.871,3.151-2.717,5.677-1.9C523.176,391.458,524.733,393.638,524.127,395.511z"/>
	<path d="M511.341,386.086c-0.605,1.869-3.149,2.721-5.678,1.896c-2.526-0.814-4.089-2.995-3.481-4.862
		c0.607-1.871,3.149-2.725,5.675-1.905C510.387,382.034,511.945,384.214,511.341,386.086z"/>
	<path d="M578.434,418.391c-0.605,1.87-3.148,2.721-5.675,1.9c-2.533-0.822-4.087-2.998-3.487-4.867
		c0.61-1.87,3.15-2.72,5.679-1.904C577.479,414.34,579.042,416.519,578.434,418.391z"/>
	<path d="M593.249,420.552c-0.608,1.869-3.146,2.72-5.678,1.897c-2.528-0.82-4.092-2.998-3.479-4.867
		c0.604-1.87,3.144-2.723,5.673-1.902C592.293,416.503,593.854,418.68,593.249,420.552z"/>
	<path d="M607.764,422.613c-0.606,1.874-3.151,2.721-5.678,1.903c-2.53-0.824-4.09-3-3.482-4.868
		c0.605-1.875,3.148-2.724,5.675-1.904C606.811,418.563,608.371,420.741,607.764,422.613z"/>
	<path d="M623.645,422.48c-0.604,1.87-3.145,2.721-5.678,1.902c-2.525-0.821-4.084-3.002-3.482-4.869
		c0.609-1.871,3.153-2.721,5.68-1.903C622.692,418.432,624.252,420.61,623.645,422.48z"/>
	<path d="M564.784,382.505c-0.57,1.756-3.085,2.516-5.614,1.696c-2.529-0.818-4.115-2.912-3.544-4.667
		c0.571-1.76,3.083-2.523,5.61-1.7C563.766,378.651,565.356,380.74,564.784,382.505z"/>
	<path d="M552.654,375.927c-0.569,1.765-3.08,2.523-5.613,1.701c-2.526-0.814-4.117-2.907-3.542-4.665
		c0.565-1.759,3.079-2.522,5.605-1.702C551.635,372.081,553.229,374.171,552.654,375.927z"/>
	<path d="M541.395,366.675c-0.623,1.923-3.176,2.815-5.707,1.997c-2.531-0.821-4.075-3.046-3.45-4.966
		c0.625-1.93,3.181-2.822,5.708-2.004C540.477,362.521,542.021,364.745,541.395,366.675z"/>
	<path d="M565.032,367.066c-0.516,1.598-2.987,2.225-5.516,1.404c-2.524-0.82-4.159-2.775-3.641-4.37
		c0.516-1.595,2.984-2.224,5.511-1.401C563.917,363.518,565.553,365.474,565.032,367.066z"/>
	<path d="M593.757,376.212c-0.547,1.68-3.037,2.371-5.566,1.551c-2.527-0.818-4.139-2.841-3.594-4.518
		c0.543-1.678,3.035-2.374,5.56-1.552C592.689,372.512,594.299,374.535,593.757,376.212z"/>
	<path d="M604.268,392.657c-0.565,1.762-3.084,2.52-5.608,1.702c-2.533-0.822-4.121-2.91-3.551-4.672
		c0.569-1.757,3.084-2.52,5.61-1.7C603.249,388.807,604.838,390.897,604.268,392.657z"/>
	<path d="M617.668,392.049c-0.52,1.598-2.987,2.221-5.52,1.401c-2.524-0.818-4.157-2.773-3.641-4.366
		c0.516-1.598,2.989-2.228,5.516-1.408C616.551,388.5,618.183,390.454,617.668,392.049z"/>
	<path d="M561.35,429.756c-0.604,1.868-3.146,2.718-5.672,1.896c-2.533-0.814-4.091-2.998-3.486-4.864
		c0.606-1.872,3.149-2.721,5.678-1.906C560.396,425.705,561.96,427.883,561.35,429.756z"/>
	<path d="M546.61,423.919c-0.608,1.869-3.148,2.721-5.682,1.897c-2.526-0.817-4.088-2.994-3.478-4.866
		c0.605-1.869,3.145-2.719,5.673-1.904C545.659,419.87,547.215,422.05,546.61,423.919z"/>
	<path d="M530.658,416.109c-0.607,1.869-3.149,2.718-5.678,1.897c-2.531-0.816-4.089-2.998-3.482-4.865
		c0.606-1.87,3.147-2.724,5.678-1.901C529.702,412.057,531.26,414.237,530.658,416.109z"/>
	<path d="M517.866,406.684c-0.602,1.869-3.146,2.718-5.674,1.9c-2.525-0.816-4.086-2.998-3.483-4.868
		c0.607-1.871,3.149-2.721,5.674-1.901C516.914,402.633,518.475,404.814,517.866,406.684z"/>
	<path d="M504.305,399.647c-0.605,1.869-3.147,2.72-5.676,1.901c-2.529-0.82-4.087-2.998-3.481-4.87
		c0.603-1.871,3.149-2.721,5.674-1.899C503.352,395.595,504.911,397.775,504.305,399.647z"/>
	<path d="M575.88,433.406c-0.609,1.87-3.149,2.719-5.675,1.901c-2.53-0.82-4.093-3.001-3.483-4.87
		c0.604-1.872,3.146-2.722,5.672-1.9C574.931,429.354,576.483,431.534,575.88,433.406z"/>
	<path d="M592.782,436.242c-0.603,1.869-3.149,2.721-5.677,1.904c-2.529-0.825-4.088-3-3.481-4.873
		c0.607-1.872,3.149-2.719,5.673-1.901C591.831,432.193,593.389,434.372,592.782,436.242z"/>
	<path d="M608.667,436.112c-0.605,1.864-3.144,2.717-5.676,1.896c-2.526-0.818-4.088-2.997-3.485-4.866
		c0.61-1.87,3.15-2.723,5.679-1.9C607.714,432.059,609.274,434.24,608.667,436.112z"/>
	<path d="M624.553,435.978c-0.606,1.866-3.146,2.719-5.678,1.901c-2.524-0.821-4.087-3-3.481-4.871
		c0.608-1.869,3.147-2.721,5.677-1.897C623.602,431.928,625.16,434.106,624.553,435.978z"/>
	<path d="M552.195,442.892c-0.606,1.867-3.149,2.722-5.678,1.895c-2.529-0.814-4.086-2.991-3.482-4.86
		c0.606-1.872,3.15-2.724,5.673-1.904C551.243,438.841,552.8,441.021,552.195,442.892z"/>
	<path d="M537.977,436.963c-0.604,1.869-3.148,2.722-5.677,1.902c-2.526-0.818-4.086-2.999-3.484-4.868
		c0.611-1.872,3.152-2.721,5.679-1.901C537.026,432.917,538.584,435.093,537.977,436.963z"/>
	<path d="M524.152,429.847c-0.606,1.866-3.143,2.715-5.677,1.897c-2.527-0.821-4.087-2.999-3.48-4.869
		c0.604-1.87,3.149-2.719,5.673-1.901C523.198,425.795,524.757,427.974,524.152,429.847z"/>
	<path d="M510.058,422.638c-0.605,1.864-3.15,2.719-5.678,1.898c-2.526-0.82-4.087-3-3.482-4.868
		c0.609-1.87,3.149-2.718,5.678-1.901C509.107,418.585,510.667,420.765,510.058,422.638z"/>
	<path d="M497.27,413.21c-0.608,1.866-3.147,2.718-5.675,1.897c-2.53-0.819-4.088-2.996-3.485-4.866
		c0.609-1.87,3.146-2.723,5.675-1.896C496.316,409.162,497.875,411.342,497.27,413.21z"/>
	<path d="M566.872,447.389c-0.604,1.869-3.145,2.72-5.675,1.897c-2.529-0.82-4.087-2.995-3.482-4.864
		c0.606-1.878,3.147-2.721,5.672-1.904C565.92,443.335,567.478,445.515,566.872,447.389z"/>
	<path d="M582.095,450.207c-0.604,1.874-3.148,2.723-5.675,1.902c-2.529-0.82-4.086-3-3.483-4.867
		c0.603-1.873,3.15-2.722,5.678-1.903C581.143,446.157,582.701,448.336,582.095,450.207z"/>
	<path d="M597.626,452.072c-0.609,1.871-3.146,2.72-5.675,1.901c-2.53-0.82-4.092-2.998-3.484-4.868
		c0.606-1.873,3.146-2.721,5.676-1.901C596.671,448.02,598.233,450.202,597.626,452.072z"/>
	<path d="M613.314,453.462c-0.608,1.867-3.146,2.715-5.68,1.896c-2.525-0.815-4.086-3-3.479-4.87c0.604-1.871,3.147-2.716,5.677-1.9
		C612.361,449.406,613.918,451.59,613.314,453.462z"/>
	<path d="M630.239,451.024c-0.606,1.868-3.147,2.719-5.679,1.898c-2.524-0.818-4.086-2.997-3.481-4.865
		c0.608-1.874,3.151-2.723,5.676-1.906C629.288,446.976,630.847,449.149,630.239,451.024z"/>
	<path d="M537.492,492.787c-0.605,1.868-3.149,2.718-5.676,1.899c-2.53-0.821-4.086-2.998-3.484-4.868
		c0.608-1.875,3.151-2.72,5.678-1.9C536.538,488.735,538.099,490.916,537.492,492.787z"/>
	<path d="M521.714,487.146c-0.608,1.867-3.148,2.719-5.675,1.897c-2.527-0.819-4.085-2.998-3.486-4.868
		c0.61-1.868,3.154-2.719,5.679-1.901C520.761,483.094,522.323,485.275,521.714,487.146z"/>
	<path d="M507.201,480.329c-0.606,1.868-3.143,2.719-5.676,1.9c-2.527-0.822-4.084-2.996-3.481-4.868
		c0.609-1.871,3.15-2.721,5.675-1.901C506.249,476.278,507.812,478.458,507.201,480.329z"/>
	<path d="M491.406,472.041c-0.605,1.871-3.148,2.718-5.678,1.898c-2.525-0.815-4.085-2.995-3.481-4.867
		c0.608-1.872,3.149-2.721,5.677-1.903C490.455,467.989,492.014,470.167,491.406,472.041z"/>
	<path d="M479.397,460.228c-0.612,1.865-3.152,2.717-5.683,1.897c-2.523-0.821-4.087-3-3.477-4.869c0.603-1.87,3.144-2.719,5.67-1.9
		C478.437,456.175,480,458.355,479.397,460.228z"/>
	<path d="M554.374,497.73c-0.606,1.868-3.149,2.717-5.677,1.896c-2.527-0.818-4.09-2.997-3.485-4.866
		c0.61-1.869,3.15-2.722,5.679-1.906C553.419,493.68,554.981,495.858,554.374,497.73z"/>
	<path d="M535.39,507.419c-0.606,1.871-3.15,2.719-5.678,1.898c-2.526-0.819-4.084-2.996-3.484-4.865
		c0.61-1.875,3.15-2.723,5.676-1.903C534.436,503.365,535.997,505.547,535.39,507.419z"/>
	<path d="M519.441,499.609c-0.606,1.871-3.15,2.717-5.681,1.899c-2.527-0.817-4.085-3-3.48-4.868
		c0.607-1.87,3.146-2.721,5.673-1.903C518.484,495.561,520.044,497.738,519.441,499.609z"/>
	<path d="M503.484,491.798c-0.604,1.869-3.146,2.72-5.675,1.901c-2.527-0.819-4.086-3-3.483-4.87
		c0.607-1.873,3.149-2.72,5.676-1.901C502.532,487.748,504.089,489.928,503.484,491.798z"/>
	<path d="M532.29,516.979c-0.604,1.866-3.144,2.715-5.678,1.897c-2.523-0.82-4.084-2.997-3.481-4.87
		c0.608-1.869,3.148-2.719,5.676-1.899C531.339,512.924,532.9,515.108,532.29,516.979z"/>
	<path d="M515.565,511.555c-0.606,1.869-3.145,2.718-5.678,1.9c-2.527-0.821-4.086-2.996-3.478-4.871
		c0.606-1.869,3.148-2.716,5.673-1.898C514.611,507.508,516.172,509.686,515.565,511.555z"/>
	<path d="M550.503,509.676c-0.606,1.866-3.147,2.718-5.679,1.9c-2.526-0.823-4.087-2.998-3.479-4.868
		c0.607-1.872,3.146-2.724,5.67-1.902C549.551,505.626,551.103,507.804,550.503,509.676z"/>
	<path d="M569.175,500.942c-0.609,1.869-3.146,2.715-5.675,1.9c-2.53-0.822-4.092-2.998-3.485-4.872
		c0.605-1.869,3.15-2.719,5.675-1.9C568.22,496.892,569.779,499.069,569.175,500.942z"/>
	<ellipse transform="matrix(0.9513 0.3083 -0.3083 0.9513 182.9944 -155.1271)" cx="582.405" cy="501.532" rx="4.813" ry="3.557"/>
	
		<linearGradient id="SVGID_4_" gradientUnits="userSpaceOnUse" x1="422.1543" y1="401.6328" x2="594.5942" y2="401.6328" gradientTransform="matrix(0.9513 0.3083 -0.3083 0.9513 187.0752 -79.6055)">
		<stop  offset="0" style="stop-color:#000000"/>
		<stop  offset="0.0093" style="stop-color:#0B0B0B"/>
		<stop  offset="0.0473" style="stop-color:#323232"/>
		<stop  offset="0.0822" style="stop-color:#4F4F4F"/>
		<stop  offset="0.1126" style="stop-color:#606060"/>
		<stop  offset="0.135" style="stop-color:#666666"/>
		<stop  offset="0.1905" style="stop-color:#828282"/>
		<stop  offset="0.2397" style="stop-color:#939393"/>
		<stop  offset="0.2761" style="stop-color:#999999"/>
		<stop  offset="0.2971" style="stop-color:#8B8B8B"/>
		<stop  offset="0.3336" style="stop-color:#7A7A7A"/>
		<stop  offset="0.379" style="stop-color:#6F6F6F"/>
		<stop  offset="0.4427" style="stop-color:#686868"/>
		<stop  offset="0.6196" style="stop-color:#666666"/>
		<stop  offset="0.6929" style="stop-color:#4D4D4D"/>
		<stop  offset="0.8288" style="stop-color:#232323"/>
		<stop  offset="0.9359" style="stop-color:#090909"/>
		<stop  offset="1" style="stop-color:#000000"/>
	</linearGradient>
	<path fill="url(#SVGID_4_)" d="M474.126,410.703c0,0,22.739,21.398,76.676,39.66c45.603,15.438,84.231,10.218,84.231,10.218
		c0.704,4.629-3.023,22.848-14.131,32.015c-4.563,3.769-38.225,5.027-82.532-8.967c-53.496-16.893-70.699-38.753-70.699-38.753
		C463.254,438.822,467.69,416.979,474.126,410.703z"/>
</g>
</svg>
