<?xml version="1.0" encoding="UTF-8" standalone="no"?>
<svg
   xmlns:dc="http://purl.org/dc/elements/1.1/"
   xmlns:cc="http://creativecommons.org/ns#"
   xmlns:rdf="http://www.w3.org/1999/02/22-rdf-syntax-ns#"
   xmlns:svg="http://www.w3.org/2000/svg"
   xmlns="http://www.w3.org/2000/svg"
   viewBox="0 0 625.11603 375.29733"
   height="375.29733"
   width="625.11603"
   xml:space="preserve"
   id="svg2"
   version="1.1"><metadata
     id="metadata8"><rdf:RDF><cc:Work
         rdf:about=""><dc:format>image/svg+xml</dc:format><dc:type
           rdf:resource="http://purl.org/dc/dcmitype/StillImage" /></cc:Work></rdf:RDF></metadata><defs
     id="defs6"><clipPath
       id="clipPath18"
       clipPathUnits="userSpaceOnUse"><path
         id="path16"
         d="M 0,281.473 H 468.837 V 0 H 0 Z" /></clipPath></defs><g
     transform="matrix(1.3333333,0,0,-1.3333333,0,375.29733)"
     id="g10"><g
       id="g12"><g
         clip-path="url(#clipPath18)"
         id="g14"><g
           transform="translate(105.4111,218.0562)"
           id="g20"><path
             id="path22"
             style="fill:none;stroke:#255576;stroke-width:3.09100008;stroke-linecap:round;stroke-linejoin:round;stroke-miterlimit:10;stroke-dasharray:none;stroke-opacity:1"
             d="m 0,0 c -11.305,-22.247 -17.639,-47.122 -17.639,-73.379 0,-26.522 6.457,-51.638 17.979,-74.057" /></g><g
           transform="translate(97.0068,225.8247)"
           id="g24"><path
             id="path26"
             style="fill:none;stroke:#255576;stroke-width:3.09100008;stroke-linecap:round;stroke-linejoin:round;stroke-miterlimit:10;stroke-dasharray:none;stroke-opacity:1"
             d="m 0,0 c -13.136,-24.412 -20.541,-51.971 -20.541,-81.148 0,-29.376 7.504,-57.114 20.809,-81.649" /></g><g
           transform="translate(88.6621,233.5293)"
           id="g28"><path
             id="path30"
             style="fill:none;stroke:#255576;stroke-width:3.09100008;stroke-linecap:round;stroke-linejoin:round;stroke-miterlimit:10;stroke-dasharray:none;stroke-opacity:1"
             d="m 0,0 c -15.001,-26.536 -23.505,-56.765 -23.505,-88.851 0,-32.222 8.576,-62.573 23.695,-89.19" /></g><g
           transform="translate(81.4619,242.1318)"
           id="g32"><path
             id="path34"
             style="fill:none;stroke:#255576;stroke-width:3.09100008;stroke-linecap:round;stroke-linejoin:round;stroke-miterlimit:10;stroke-dasharray:none;stroke-opacity:1"
             d="m 0,0 c -17.134,-28.884 -26.9,-62.103 -26.9,-97.453 0,-35.417 9.802,-68.693 26.996,-97.615" /></g><g
           transform="translate(365.3428,218.0562)"
           id="g36"><path
             id="path38"
             style="fill:none;stroke:#255576;stroke-width:3.09100008;stroke-linecap:round;stroke-linejoin:round;stroke-miterlimit:10;stroke-dasharray:none;stroke-opacity:1"
             d="m 0,0 c 11.305,-22.247 17.639,-47.122 17.639,-73.379 0,-26.522 -6.457,-51.638 -17.979,-74.057" /></g><g
           transform="translate(373.7471,225.8247)"
           id="g40"><path
             id="path42"
             style="fill:none;stroke:#255576;stroke-width:3.09100008;stroke-linecap:round;stroke-linejoin:round;stroke-miterlimit:10;stroke-dasharray:none;stroke-opacity:1"
             d="m 0,0 c 13.136,-24.412 20.541,-51.971 20.541,-81.148 0,-29.376 -7.504,-57.114 -20.809,-81.649" /></g><g
           transform="translate(382.0918,233.5293)"
           id="g44"><path
             id="path46"
             style="fill:none;stroke:#255576;stroke-width:3.09100008;stroke-linecap:round;stroke-linejoin:round;stroke-miterlimit:10;stroke-dasharray:none;stroke-opacity:1"
             d="m 0,0 c 15.001,-26.536 23.505,-56.765 23.505,-88.851 0,-32.222 -8.576,-62.573 -23.695,-89.19" /></g><g
           transform="translate(389.292,242.1318)"
           id="g48"><path
             id="path50"
             style="fill:none;stroke:#255576;stroke-width:3.09100008;stroke-linecap:round;stroke-linejoin:round;stroke-miterlimit:10;stroke-dasharray:none;stroke-opacity:1"
             d="m 0,0 c 17.134,-28.884 26.9,-62.103 26.9,-97.453 0,-35.417 -9.802,-68.693 -26.996,-97.615" /></g><g
           transform="translate(130.2705,162.0977)"
           id="g52"><path
             id="path54"
             style="fill:#231f20;fill-opacity:1;fill-rule:nonzero;stroke:none"
             d="m 0,0 c 9.862,0 14.931,-5.898 14.931,-16.221 v -2.027 H 5.346 v 2.673 c 0,4.608 -1.843,6.359 -5.069,6.359 -3.226,0 -5.069,-1.751 -5.069,-6.359 0,-13.272 19.815,-15.76 19.815,-34.193 0,-10.322 -5.161,-16.22 -15.115,-16.22 -9.953,0 -15.114,5.898 -15.114,16.22 v 3.963 h 9.585 v -4.608 c 0,-4.608 2.027,-6.267 5.253,-6.267 3.225,0 5.253,1.659 5.253,6.267 0,13.271 -19.815,15.761 -19.815,34.192 C -14.93,-5.898 -9.861,0 0,0" /></g><path
           id="path56"
           style="fill:#231f20;fill-opacity:1;fill-rule:nonzero;stroke:none"
           d="m 151.098,161.361 h 10.138 V 96.846 h -10.138 z" /><g
           transform="translate(190.0811,115.5557)"
           id="g58"><path
             id="path60"
             style="fill:#231f20;fill-opacity:1;fill-rule:nonzero;stroke:none"
             d="M 0,0 6.912,45.806 H 21.014 V -18.709 H 11.429 V 27.557 L 4.424,-18.709 h -9.585 l -7.557,45.621 v -45.621 h -8.847 v 64.515 h 14.1 z" /></g><g
           transform="translate(296.9912,143.5732)"
           id="g62"><path
             id="path64"
             style="fill:#231f20;fill-opacity:1;fill-rule:nonzero;stroke:none"
             d="M 0,0 V -46.727 H -9.124 V 17.788 H 3.594 l 10.415,-38.617 v 38.617 h 9.032 V -46.727 H 12.626 Z" /></g><g
           transform="translate(337.4482,134.1729)"
           id="g66"><path
             id="path68"
             style="fill:#231f20;fill-opacity:1;fill-rule:nonzero;stroke:none"
             d="M 0,0 H 13.917 V -9.217 H 0 V -28.11 h 17.512 v -9.216 h -27.65 v 64.514 h 27.65 V 17.972 L 0,17.972 Z" /></g><g
           transform="translate(214.3457,129.1035)"
           id="g70"><path
             id="path72"
             style="fill:#231f20;fill-opacity:1;fill-rule:nonzero;stroke:none"
             d="M 0,0 C 0,19.384 15.714,35.099 35.099,35.099 54.483,35.099 70.196,19.384 70.196,0 70.196,-19.384 54.483,-35.099 35.099,-35.099 15.714,-35.099 0,-19.384 0,0" /></g><g
           transform="translate(224.5537,135.7358)"
           id="g74"><path
             id="path76"
             style="fill:#ffffff;fill-opacity:1;fill-rule:nonzero;stroke:none"
             d="m 0,0 h 2.076 v -11.324 h 3.416 v -1.888 H 0 Z" /></g><g
           transform="translate(232.9346,126.7144)"
           id="g78"><path
             id="path80"
             style="fill:#ffffff;fill-opacity:1;fill-rule:nonzero;stroke:none"
             d="M 0,0 H 2.001 L 1,6.682 Z M 4.738,-4.19 H 2.643 L 2.284,-1.794 H -0.264 L -0.623,-4.19 h -1.906 l 2.114,13.211 h 3.038 z" /></g><g
           transform="translate(243.6367,133.8491)"
           id="g82"><path
             id="path84"
             style="fill:#ffffff;fill-opacity:1;fill-rule:nonzero;stroke:none"
             d="m 0,0 v -4.059 h 0.812 c 0.774,0 1.246,0.34 1.246,1.397 v 1.303 C 2.058,-0.416 1.737,0 1.001,0 Z m 2.265,-11.325 c -0.114,0.34 -0.188,0.547 -0.188,1.623 v 2.076 c 0,1.227 -0.416,1.68 -1.359,1.68 H 0 v -5.379 H -2.076 V 1.887 h 3.134 c 2.151,0 3.076,-1 3.076,-3.038 v -1.038 c 0,-1.36 -0.434,-2.247 -1.36,-2.681 1.039,-0.435 1.379,-1.435 1.379,-2.813 v -2.038 c 0,-0.642 0.018,-1.114 0.227,-1.604 z" /></g><g
           transform="translate(251.1309,126.7144)"
           id="g86"><path
             id="path88"
             style="fill:#ffffff;fill-opacity:1;fill-rule:nonzero;stroke:none"
             d="m 0,0 h 2.001 l -1,6.682 z M 4.737,-4.19 H 2.643 L 2.284,-1.794 H -0.265 L -0.623,-4.19 h -1.906 l 2.114,13.211 h 3.039 z" /></g><g
           transform="translate(258.9063,133.8491)"
           id="g90"><path
             id="path92"
             style="fill:#ffffff;fill-opacity:1;fill-rule:nonzero;stroke:none"
             d="m 0,0 v -9.438 h 1.172 c 0.66,0 1.057,0.339 1.057,1.284 v 6.87 C 2.229,-0.34 1.832,0 1.172,0 Z m -2.075,1.887 h 3.284 c 2.076,0 3.096,-1.152 3.096,-3.265 V -8.06 c 0,-2.114 -1.02,-3.265 -3.096,-3.265 h -3.284 z" /></g><path
           id="path94"
           style="fill:#ffffff;fill-opacity:1;fill-rule:nonzero;stroke:none"
           d="m 264.531,135.736 h 2.076 v -13.212 h -2.076 z" /><g
           transform="translate(270.0254,125.563)"
           id="g96"><path
             id="path98"
             style="fill:#ffffff;fill-opacity:1;fill-rule:nonzero;stroke:none"
             d="m 0,0 c 0,-0.944 0.414,-1.303 1.076,-1.303 0.66,0 1.074,0.359 1.074,1.303 V 7.135 C 2.15,8.078 1.736,8.437 1.076,8.437 0.414,8.437 0,8.078 0,7.135 Z m -2.076,7.002 c 0,2.114 1.113,3.322 3.152,3.322 2.037,0 3.153,-1.208 3.153,-3.322 v -6.87 c 0,-2.114 -1.116,-3.322 -3.153,-3.322 -2.039,0 -3.152,1.208 -3.152,3.322 z" /></g><g
           transform="translate(118.7358,184.1108)"
           id="g100"><path
             id="path102"
             style="fill:#265676;fill-opacity:1;fill-rule:nonzero;stroke:none"
             d="M 0,0 H 4.738 V -3.335 H 0 v -9.638 H -3.667 V 10.37 H 6.039 V 7.036 L 0,7.036 Z" /></g><g
           transform="translate(129.6094,178.54)"
           id="g104"><path
             id="path106"
             style="fill:#265676;fill-opacity:1;fill-rule:nonzero;stroke:none"
             d="M 0,0 H 3.534 L 1.766,11.806 Z M 8.371,-7.402 H 4.667 L 4.034,-3.167 H -0.467 L -1.101,-7.402 H -4.47 l 3.735,23.342 h 5.371 z" /></g><g
           transform="translate(143.1787,194.4805)"
           id="g108"><path
             id="path110"
             style="fill:#265676;fill-opacity:1;fill-rule:nonzero;stroke:none"
             d="m 0,0 v -18.007 c 0,-1.667 0.735,-2.267 1.902,-2.267 1.167,0 1.902,0.6 1.902,2.267 V 0 h 3.468 v -17.773 c 0,-3.736 -1.87,-5.869 -5.47,-5.869 -3.6,0 -5.467,2.133 -5.467,5.869 l 0,17.773 z" /></g><g
           transform="translate(156.6191,181.6431)"
           id="g112"><path
             id="path114"
             style="fill:#265676;fill-opacity:1;fill-rule:nonzero;stroke:none"
             d="m 0,0 v -7.171 h 2.101 c 1.232,0 1.903,0.567 1.903,2.301 v 2.034 C 4.004,-0.667 3.3,0 1.635,0 Z M 0,9.503 V 3.335 h 1.435 c 1.367,0 2.199,0.599 2.199,2.468 v 1.301 c 0,1.666 -0.566,2.399 -1.867,2.399 z M 7.303,7.469 V 6.638 C 7.303,4.234 6.569,2.7 4.936,1.934 6.903,1.167 7.669,-0.6 7.669,-3.068 v -1.903 c 0,-3.6 -1.899,-5.534 -5.568,-5.534 h -5.769 v 23.342 h 5.536 c 3.802,0 5.435,-1.766 5.435,-5.368" /></g><g
           transform="translate(169.8569,176.5073)"
           id="g116"><path
             id="path118"
             style="fill:#265676;fill-opacity:1;fill-rule:nonzero;stroke:none"
             d="m 0,0 c 0,-1.668 0.734,-2.301 1.9,-2.301 1.169,0 1.904,0.633 1.904,2.301 v 12.605 c 0,1.668 -0.735,2.3 -1.904,2.3 -1.166,0 -1.9,-0.632 -1.9,-2.3 z m -3.667,12.372 c 0,3.733 1.967,5.869 5.567,5.869 3.604,0 5.57,-2.136 5.57,-5.869 V 0.232 c 0,-3.734 -1.966,-5.869 -5.57,-5.869 -3.6,0 -5.567,2.135 -5.567,5.869 z" /></g><g
           transform="translate(183.1953,194.4805)"
           id="g120"><path
             id="path122"
             style="fill:#265676;fill-opacity:1;fill-rule:nonzero;stroke:none"
             d="m 0,0 v -18.007 c 0,-1.667 0.735,-2.267 1.902,-2.267 1.167,0 1.902,0.6 1.902,2.267 V 0 h 3.467 v -17.773 c 0,-3.736 -1.868,-5.869 -5.47,-5.869 -3.6,0 -5.47,2.133 -5.47,5.869 l 0,17.773 z" /></g><g
           transform="translate(196.6353,191.1465)"
           id="g124"><path
             id="path126"
             style="fill:#265676;fill-opacity:1;fill-rule:nonzero;stroke:none"
             d="m 0,0 v -7.17 h 1.432 c 1.369,0 2.201,0.601 2.201,2.468 V -2.4 C 3.633,-0.733 3.069,0 1.768,0 Z m 4.002,-20.008 c -0.201,0.599 -0.334,0.966 -0.334,2.867 v 3.67 c 0,2.166 -0.733,2.967 -2.402,2.967 H 0 v -9.504 H -3.668 V 3.334 h 5.536 c 3.801,0 5.436,-1.767 5.436,-5.368 V -3.87 c 0,-2.399 -0.768,-3.966 -2.403,-4.734 1.836,-0.766 2.435,-2.534 2.435,-4.969 v -3.6 c 0,-1.136 0.034,-1.969 0.401,-2.835 z" /></g><g
           transform="translate(211.8745,184.1426)"
           id="g128"><path
             id="path130"
             style="fill:#265676;fill-opacity:1;fill-rule:nonzero;stroke:none"
             d="m 0,0 h 5.135 v -7.403 c 0,-3.735 -1.865,-5.869 -5.468,-5.869 -3.602,0 -5.47,2.134 -5.47,5.869 v 12.14 c 0,3.733 1.868,5.869 5.47,5.869 3.603,0 5.468,-2.136 5.468,-5.869 V 2.47 H 1.666 v 2.5 c 0,1.668 -0.732,2.3 -1.899,2.3 -1.168,0 -1.901,-0.632 -1.901,-2.3 V -7.635 c 0,-1.668 0.733,-2.269 1.901,-2.269 1.167,0 1.899,0.601 1.899,2.269 v 4.302 l -1.666,0 z" /></g></g></g></g></svg>