<svg id="Calque_1" data-name="Calque 1" xmlns="http://www.w3.org/2000/svg" viewBox="0 0 468.84 281.47"><defs><style>.cls-1{fill:none;stroke:#135976;stroke-linecap:round;stroke-linejoin:round;stroke-width:3.09px;}.cls-2{fill:#231f20;}.cls-3{fill:#fff;}.cls-4{fill:#135a76;}</style></defs><title>faubourg-simone-logo-android</title><path class="cls-1" d="M105.41,63.42a161.48,161.48,0,0,0,.34,147.44"/><path class="cls-1" d="M97,55.65a170.58,170.58,0,0,0,.27,162.8"/><path class="cls-1" d="M88.66,47.94a179.7,179.7,0,0,0,.19,178"/><path class="cls-1" d="M81.46,39.34a190,190,0,0,0,.1,195.07"/><path class="cls-1" d="M365.34,63.42A161.48,161.48,0,0,1,365,210.85"/><path class="cls-1" d="M373.75,55.65a170.58,170.58,0,0,1-.27,162.8"/><path class="cls-1" d="M382.09,47.94a179.7,179.7,0,0,1-.19,178"/><path class="cls-1" d="M389.29,39.34a190,190,0,0,1-.1,195.07"/><path class="cls-2" d="M130.27,119.38c9.86,0,14.93,5.9,14.93,16.22v2h-9.58V135c0-4.61-1.84-6.36-5.07-6.36s-5.07,1.75-5.07,6.36c0,13.27,19.82,15.76,19.82,34.19,0,10.32-5.16,16.22-15.12,16.22s-15.11-5.9-15.11-16.22v-4h9.58v4.61c0,4.61,2,6.27,5.25,6.27s5.25-1.66,5.25-6.27c0-13.27-19.81-15.76-19.81-34.19C115.34,125.27,120.41,119.38,130.27,119.38Z"/><path class="cls-2" d="M151.1,120.11h10.14v64.51H151.1Z"/><path class="cls-2" d="M190.08,165.92,197,120.11h14.1v64.51h-9.58V138.36l-7,46.27h-9.58L177.36,139v45.62h-8.85V120.11h14.1Z"/><path class="cls-2" d="M297,137.9v46.73h-9.12V120.11h12.72L311,158.73V120.11h9v64.51H309.62Z"/><path class="cls-2" d="M337.45,147.3h13.92v9.22H337.45v18.89H355v9.22H327.31V120.11H355v9.22H337.45Z"/><circle class="cls-2" cx="249.44" cy="152.37" r="35.1"/><path class="cls-3" d="M224.55,145.74h2.08v11.32H230v1.89h-5.49Z"/><path class="cls-3" d="M237.67,158.95h-2.1l-.36-2.4h-2.55l-.36,2.4h-1.91l2.11-13.21h3Zm-4.74-4.19h2l-1-6.68Z"/><path class="cls-3" d="M245.9,158.95a4.07,4.07,0,0,1-.19-1.62v-2.08c0-1.23-.42-1.68-1.36-1.68h-.72v5.38h-2.08V145.74h3.13c2.15,0,3.08,1,3.08,3v1a2.63,2.63,0,0,1-1.36,2.68c1,.43,1.38,1.43,1.38,2.81v2a3.87,3.87,0,0,0,.23,1.6Zm-2.26-11.33v4.06h.81c.77,0,1.25-.34,1.25-1.4V149c0-.94-.32-1.36-1.06-1.36Z"/><path class="cls-3" d="M255.87,158.95h-2.09l-.36-2.4h-2.55l-.36,2.4H248.6l2.11-13.21h3Zm-4.74-4.19h2l-1-6.68Z"/><path class="cls-3" d="M256.83,145.74h3.28c2.08,0,3.1,1.15,3.1,3.26v6.68c0,2.11-1,3.27-3.1,3.27h-3.28Zm2.08,1.89v9.44h1.17c.66,0,1.06-.34,1.06-1.28v-6.87c0-.94-.4-1.28-1.06-1.28Z"/><path class="cls-3" d="M264.53,145.74h2.08v13.21h-2.08Z"/><path class="cls-3" d="M267.95,148.91c0-2.11,1.11-3.32,3.15-3.32s3.15,1.21,3.15,3.32v6.87c0,2.11-1.12,3.32-3.15,3.32s-3.15-1.21-3.15-3.32Zm2.08,7c0,.94.41,1.3,1.08,1.3s1.07-.36,1.07-1.3v-7.13c0-.94-.41-1.3-1.07-1.3s-1.08.36-1.08,1.3Z"/><path class="cls-4" d="M118.74,97.36h4.74v3.33h-4.74v9.64h-3.67V87h9.71v3.33h-6Z"/><path class="cls-4" d="M138,110.33h-3.7l-.63-4.24h-4.5l-.63,4.24h-3.37L128.87,87h5.37Zm-8.37-7.4h3.53l-1.77-11.81Z"/><path class="cls-4" d="M143.18,87v18c0,1.67.73,2.27,1.9,2.27s1.9-.6,1.9-2.27V87h3.47v17.77c0,3.74-1.87,5.87-5.47,5.87s-5.47-2.13-5.47-5.87V87Z"/><path class="cls-4" d="M163.92,92.36v.83c0,2.4-.73,3.94-2.37,4.7,2,.77,2.73,2.53,2.73,5v1.9c0,3.6-1.9,5.53-5.57,5.53H153V87h5.54C162.29,87,163.92,88.76,163.92,92.36Zm-7.3-2v6.17h1.43c1.37,0,2.2-.6,2.2-2.47v-1.3c0-1.67-.57-2.4-1.87-2.4Zm0,9.5V107h2.1c1.23,0,1.9-.57,1.9-2.3v-2c0-2.17-.7-2.84-2.37-2.84Z"/><path class="cls-4" d="M166.19,92.59c0-3.73,2-5.87,5.57-5.87s5.57,2.14,5.57,5.87v12.14c0,3.73-2,5.87-5.57,5.87s-5.57-2.13-5.57-5.87ZM169.86,105c0,1.67.73,2.3,1.9,2.3s1.9-.63,1.9-2.3V92.36c0-1.67-.73-2.3-1.9-2.3s-1.9.63-1.9,2.3Z"/><path class="cls-4" d="M183.2,87v18c0,1.67.74,2.27,1.9,2.27s1.9-.6,1.9-2.27V87h3.47v17.77c0,3.74-1.87,5.87-5.47,5.87s-5.47-2.13-5.47-5.87V87Z"/><path class="cls-4" d="M200.64,110.33a7.16,7.16,0,0,1-.33-2.87V103.8c0-2.17-.73-3-2.4-3h-1.27v9.5H193V87h5.54c3.8,0,5.44,1.77,5.44,5.37V94.2c0,2.4-.77,4-2.4,4.73,1.84.77,2.43,2.53,2.43,5v3.6a6.86,6.86,0,0,0,.4,2.83Zm-4-20V97.5h1.43c1.37,0,2.2-.6,2.2-2.47v-2.3c0-1.67-.56-2.4-1.87-2.4Z"/><path class="cls-4" d="M211.87,97.33H217v7.4c0,3.73-1.87,5.87-5.47,5.87s-5.47-2.13-5.47-5.87V92.59c0-3.73,1.87-5.87,5.47-5.87S217,88.86,217,92.59v2.27h-3.47v-2.5c0-1.67-.73-2.3-1.9-2.3s-1.9.63-1.9,2.3V105c0,1.67.73,2.27,1.9,2.27s1.9-.6,1.9-2.27v-4.3h-1.67Z"/></svg>